<mxfile host="65bd71144e">
    <diagram id="KvbSd6Go_CINuL4ipEuo" name="data-from-child-to-parent">
        <mxGraphModel dx="768" dy="541" grid="1" gridSize="10" guides="1" tooltips="1" connect="1" arrows="1" fold="1" page="1" pageScale="1" pageWidth="827" pageHeight="1169" background="#ffffff" math="0" shadow="0">
            <root>
                <mxCell id="0"/>
                <mxCell id="1" parent="0"/>
                <mxCell id="3SQ69BpR935DEHhvDbjh-1" value="" style="rounded=0;whiteSpace=wrap;html=1;strokeColor=none;strokeWidth=2;fontSize=20;fontColor=#000000;fillColor=#FFFFFF;" parent="1" vertex="1">
                    <mxGeometry x="60" y="80" width="680" height="210" as="geometry"/>
                </mxCell>
                <mxCell id="3SQ69BpR935DEHhvDbjh-2" value="&lt;div style=&quot;text-align: right;&quot;&gt;&lt;span style=&quot;color: rgb(0, 0, 0); background-color: initial;&quot;&gt;&lt;font style=&quot;font-size: 16px;&quot;&gt;&amp;nbsp; &amp;nbsp;(fd[0]) -- in&lt;br&gt;&lt;/font&gt;&lt;/span&gt;&lt;/div&gt;&lt;font style=&quot;font-size: 12px;&quot; color=&quot;#000000&quot;&gt;&lt;br&gt;&lt;font style=&quot;font-size: 18px;&quot;&gt;&lt;b&gt;&amp;nbsp;Parent&amp;nbsp;&lt;/b&gt;&lt;/font&gt;&lt;/font&gt;&lt;font style=&quot;font-size: 12px;&quot; color=&quot;#000000&quot;&gt;&lt;font style=&quot;font-size: 18px;&quot;&gt;&lt;b&gt;Process&lt;/b&gt;&lt;/font&gt;&lt;br&gt;&lt;br&gt;&lt;span style=&quot;font-size: 16px;&quot;&gt;&amp;nbsp; &amp;nbsp; &amp;nbsp; &amp;nbsp; &amp;nbsp; &amp;nbsp; &amp;nbsp; &amp;nbsp;(fd[1]) -- out&lt;/span&gt;&lt;br&gt;&lt;/font&gt;" style="rounded=1;whiteSpace=wrap;html=1;strokeColor=#000000;fillColor=#FFFFFF;align=left;strokeWidth=2;" parent="1" vertex="1">
                    <mxGeometry x="80" y="120" width="160" height="120" as="geometry"/>
                </mxCell>
                <mxCell id="3SQ69BpR935DEHhvDbjh-3" value="&lt;div style=&quot;text-align: right;&quot;&gt;&lt;/div&gt;&lt;font style=&quot;&quot; color=&quot;#000000&quot;&gt;&lt;div style=&quot;text-align: center;&quot;&gt;&lt;span style=&quot;font-size: 20px; background-color: initial;&quot;&gt;&amp;nbsp; &amp;nbsp; &amp;nbsp; &amp;nbsp; &amp;nbsp;Kernel&lt;/span&gt;&lt;/div&gt;&lt;/font&gt;" style="rounded=1;whiteSpace=wrap;html=1;strokeColor=#000000;fillColor=#FFFFFF;align=left;strokeWidth=2;" parent="1" vertex="1">
                    <mxGeometry x="321" y="120" width="158" height="120" as="geometry"/>
                </mxCell>
                <mxCell id="3SQ69BpR935DEHhvDbjh-4" value="" style="shape=flexArrow;endArrow=classic;html=1;fontSize=20;fontColor=#000000;entryX=1;entryY=0.25;entryDx=0;entryDy=0;entryPerimeter=0;fillColor=default;strokeColor=#000000;" parent="1" edge="1">
                    <mxGeometry width="50" height="50" relative="1" as="geometry">
                        <mxPoint x="320" y="147" as="sourcePoint"/>
                        <mxPoint x="240" y="147" as="targetPoint"/>
                    </mxGeometry>
                </mxCell>
                <mxCell id="3SQ69BpR935DEHhvDbjh-6" value="&lt;div style=&quot;text-align: right;&quot;&gt;&lt;/div&gt;&lt;font style=&quot;&quot; color=&quot;#000000&quot;&gt;&lt;div style=&quot;font-size: 16px; text-align: right;&quot;&gt;&lt;span style=&quot;background-color: initial; font-size: 16px;&quot;&gt;in -- (fd[0])&amp;nbsp; &amp;nbsp; &amp;nbsp; &amp;nbsp; &amp;nbsp; &amp;nbsp; &amp;nbsp; &amp;nbsp;&amp;nbsp;&lt;/span&gt;&lt;/div&gt;&lt;div style=&quot;font-size: 12px; text-align: right;&quot;&gt;&lt;span style=&quot;background-color: initial;&quot;&gt;&lt;br&gt;&lt;/span&gt;&lt;/div&gt;&lt;div style=&quot;text-align: right;&quot;&gt;&lt;span style=&quot;background-color: initial;&quot;&gt;&lt;b style=&quot;&quot;&gt;&lt;font style=&quot;font-size: 18px;&quot;&gt;&amp;nbsp; &amp;nbsp; &amp;nbsp; Child Process&lt;/font&gt;&lt;/b&gt;&lt;/span&gt;&lt;/div&gt;&lt;div style=&quot;font-size: 16px; text-align: right;&quot;&gt;&lt;span style=&quot;background-color: initial; font-size: 12px;&quot;&gt;&lt;span style=&quot;&quot;&gt;&lt;br&gt;&lt;/span&gt;&lt;/span&gt;&lt;/div&gt;&lt;div style=&quot;font-size: 16px; text-align: right;&quot;&gt;&lt;span style=&quot;background-color: initial;&quot;&gt;&lt;span style=&quot;&quot;&gt;out -- (fd[1])&amp;nbsp; &amp;nbsp; &amp;nbsp; &amp;nbsp; &amp;nbsp; &amp;nbsp; &amp;nbsp;&amp;nbsp;&lt;/span&gt;&lt;/span&gt;&lt;/div&gt;&lt;/font&gt;" style="rounded=1;whiteSpace=wrap;html=1;strokeColor=#000000;fillColor=#FFFFFF;align=left;strokeWidth=2;" parent="1" vertex="1">
                    <mxGeometry x="560" y="120" width="158" height="120" as="geometry"/>
                </mxCell>
                <mxCell id="3SQ69BpR935DEHhvDbjh-8" value="" style="shape=flexArrow;endArrow=classic;html=1;fontSize=20;fontColor=#000000;entryX=1;entryY=0.25;entryDx=0;entryDy=0;entryPerimeter=0;fillColor=default;strokeColor=#000000;" parent="1" edge="1">
                    <mxGeometry width="50" height="50" relative="1" as="geometry">
                        <mxPoint x="559" y="215" as="sourcePoint"/>
                        <mxPoint x="479" y="215" as="targetPoint"/>
                    </mxGeometry>
                </mxCell>
                <mxCell id="6_ZepCEbjqJ-ujG5N55i-1" style="edgeStyle=elbowEdgeStyle;html=1;entryX=0;entryY=0.25;entryDx=0;entryDy=0;strokeColor=#001DBC;dashed=1;exitX=1;exitY=0.75;exitDx=0;exitDy=0;fillColor=#0050ef;strokeWidth=2;" edge="1" parent="1">
                    <mxGeometry relative="1" as="geometry">
                        <mxPoint x="478" y="214" as="sourcePoint"/>
                        <mxPoint x="320" y="149" as="targetPoint"/>
                        <Array as="points">
                            <mxPoint x="359" y="184"/>
                            <mxPoint x="349" y="184"/>
                            <mxPoint x="449" y="235"/>
                        </Array>
                    </mxGeometry>
                </mxCell>
            </root>
        </mxGraphModel>
    </diagram>
    <diagram id="GRmYCydQ27DPcEGumkee" name="pipe-parent-child-kernel">
        <mxGraphModel dx="768" dy="541" grid="1" gridSize="10" guides="1" tooltips="1" connect="1" arrows="1" fold="1" page="1" pageScale="1" pageWidth="827" pageHeight="1169" background="#ffffff" math="0" shadow="0">
            <root>
                <mxCell id="0"/>
                <mxCell id="1" parent="0"/>
                <mxCell id="nMj4Vo1XrmTeqmz92Q3k-1" value="" style="rounded=0;whiteSpace=wrap;html=1;strokeColor=none;strokeWidth=2;fontSize=20;fontColor=#000000;fillColor=#FFFFFF;" parent="1" vertex="1">
                    <mxGeometry x="60" y="80" width="680" height="200" as="geometry"/>
                </mxCell>
                <mxCell id="nMj4Vo1XrmTeqmz92Q3k-2" value="&lt;div style=&quot;text-align: right;&quot;&gt;&lt;span style=&quot;color: rgb(0, 0, 0); background-color: initial;&quot;&gt;&lt;font style=&quot;font-size: 16px;&quot;&gt;&amp;nbsp; &amp;nbsp;(fd[0]) -- in&lt;br&gt;&lt;/font&gt;&lt;/span&gt;&lt;/div&gt;&lt;font style=&quot;font-size: 12px;&quot; color=&quot;#000000&quot;&gt;&lt;br&gt;&lt;font style=&quot;font-size: 18px;&quot;&gt;&lt;b&gt;&amp;nbsp;Parent&amp;nbsp;&lt;/b&gt;&lt;/font&gt;&lt;/font&gt;&lt;font style=&quot;font-size: 12px;&quot; color=&quot;#000000&quot;&gt;&lt;font style=&quot;font-size: 18px;&quot;&gt;&lt;b&gt;Process&lt;/b&gt;&lt;/font&gt;&lt;br&gt;&lt;br&gt;&lt;span style=&quot;font-size: 16px;&quot;&gt;&amp;nbsp; &amp;nbsp; &amp;nbsp; &amp;nbsp; &amp;nbsp; &amp;nbsp; &amp;nbsp; &amp;nbsp;(fd[1]) -- out&lt;/span&gt;&lt;br&gt;&lt;/font&gt;" style="rounded=1;whiteSpace=wrap;html=1;strokeColor=#000000;fillColor=#FFFFFF;align=left;strokeWidth=2;" parent="1" vertex="1">
                    <mxGeometry x="80" y="120" width="160" height="120" as="geometry"/>
                </mxCell>
                <mxCell id="nMj4Vo1XrmTeqmz92Q3k-3" value="&lt;div style=&quot;text-align: right;&quot;&gt;&lt;/div&gt;&lt;font style=&quot;&quot; color=&quot;#000000&quot;&gt;&lt;div style=&quot;text-align: center;&quot;&gt;&lt;span style=&quot;font-size: 20px; background-color: initial;&quot;&gt;&amp;nbsp; &amp;nbsp; &amp;nbsp; &amp;nbsp; &amp;nbsp;Kernel&lt;/span&gt;&lt;/div&gt;&lt;/font&gt;" style="rounded=1;whiteSpace=wrap;html=1;strokeColor=#000000;fillColor=#FFFFFF;align=left;strokeWidth=2;" parent="1" vertex="1">
                    <mxGeometry x="321" y="120" width="158" height="120" as="geometry"/>
                </mxCell>
                <mxCell id="nMj4Vo1XrmTeqmz92Q3k-4" value="" style="shape=flexArrow;endArrow=classic;html=1;fontSize=20;fontColor=#000000;entryX=1;entryY=0.25;entryDx=0;entryDy=0;entryPerimeter=0;fillColor=default;strokeColor=#000000;" parent="1" edge="1">
                    <mxGeometry width="50" height="50" relative="1" as="geometry">
                        <mxPoint x="320" y="147" as="sourcePoint"/>
                        <mxPoint x="240" y="147" as="targetPoint"/>
                    </mxGeometry>
                </mxCell>
                <mxCell id="nMj4Vo1XrmTeqmz92Q3k-5" value="" style="shape=flexArrow;endArrow=classic;html=1;fontSize=20;fontColor=#000000;exitX=1;exitY=0.75;exitDx=0;exitDy=0;fillColor=default;strokeColor=#000000;" parent="1" edge="1">
                    <mxGeometry width="50" height="50" relative="1" as="geometry">
                        <mxPoint x="240" y="212" as="sourcePoint"/>
                        <mxPoint x="320" y="212" as="targetPoint"/>
                    </mxGeometry>
                </mxCell>
                <mxCell id="nMj4Vo1XrmTeqmz92Q3k-6" value="&lt;div style=&quot;text-align: right;&quot;&gt;&lt;/div&gt;&lt;font style=&quot;&quot; color=&quot;#000000&quot;&gt;&lt;div style=&quot;font-size: 16px; text-align: right;&quot;&gt;&lt;span style=&quot;background-color: initial; font-size: 16px;&quot;&gt;in -- (fd[0])&amp;nbsp; &amp;nbsp; &amp;nbsp; &amp;nbsp; &amp;nbsp; &amp;nbsp; &amp;nbsp; &amp;nbsp;&amp;nbsp;&lt;/span&gt;&lt;/div&gt;&lt;div style=&quot;font-size: 12px; text-align: right;&quot;&gt;&lt;span style=&quot;background-color: initial;&quot;&gt;&lt;br&gt;&lt;/span&gt;&lt;/div&gt;&lt;div style=&quot;text-align: right;&quot;&gt;&lt;span style=&quot;background-color: initial;&quot;&gt;&lt;b style=&quot;&quot;&gt;&lt;font style=&quot;font-size: 18px;&quot;&gt;&amp;nbsp; &amp;nbsp; &amp;nbsp; Child Process&lt;/font&gt;&lt;/b&gt;&lt;/span&gt;&lt;/div&gt;&lt;div style=&quot;font-size: 16px; text-align: right;&quot;&gt;&lt;span style=&quot;background-color: initial; font-size: 12px;&quot;&gt;&lt;span style=&quot;&quot;&gt;&lt;br&gt;&lt;/span&gt;&lt;/span&gt;&lt;/div&gt;&lt;div style=&quot;font-size: 16px; text-align: right;&quot;&gt;&lt;span style=&quot;background-color: initial;&quot;&gt;&lt;span style=&quot;&quot;&gt;out -- (fd[1])&amp;nbsp; &amp;nbsp; &amp;nbsp; &amp;nbsp; &amp;nbsp; &amp;nbsp; &amp;nbsp;&amp;nbsp;&lt;/span&gt;&lt;/span&gt;&lt;/div&gt;&lt;/font&gt;" style="rounded=1;whiteSpace=wrap;html=1;strokeColor=#000000;fillColor=#FFFFFF;align=left;strokeWidth=2;" parent="1" vertex="1">
                    <mxGeometry x="560" y="120" width="158" height="120" as="geometry"/>
                </mxCell>
                <mxCell id="nMj4Vo1XrmTeqmz92Q3k-7" value="" style="shape=flexArrow;endArrow=classic;html=1;fontSize=20;fontColor=#000000;exitX=1;exitY=0.75;exitDx=0;exitDy=0;fillColor=default;strokeColor=#000000;" parent="1" edge="1">
                    <mxGeometry width="50" height="50" relative="1" as="geometry">
                        <mxPoint x="479" y="147" as="sourcePoint"/>
                        <mxPoint x="559" y="147" as="targetPoint"/>
                    </mxGeometry>
                </mxCell>
                <mxCell id="nMj4Vo1XrmTeqmz92Q3k-8" value="" style="shape=flexArrow;endArrow=classic;html=1;fontSize=20;fontColor=#000000;entryX=1;entryY=0.25;entryDx=0;entryDy=0;entryPerimeter=0;fillColor=default;strokeColor=#000000;" parent="1" edge="1">
                    <mxGeometry width="50" height="50" relative="1" as="geometry">
                        <mxPoint x="559" y="215" as="sourcePoint"/>
                        <mxPoint x="479" y="215" as="targetPoint"/>
                    </mxGeometry>
                </mxCell>
                <mxCell id="cZtJvOjBXIy7jhNVxRS9-7" style="edgeStyle=elbowEdgeStyle;html=1;entryX=1;entryY=0.25;entryDx=0;entryDy=0;strokeColor=#B20000;dashed=1;strokeWidth=2;fillColor=#e51400;" edge="1" parent="1">
                    <mxGeometry relative="1" as="geometry">
                        <mxPoint x="320" y="211" as="sourcePoint"/>
                        <mxPoint x="479" y="151" as="targetPoint"/>
                        <Array as="points">
                            <mxPoint x="440" y="201"/>
                            <mxPoint x="440" y="221"/>
                        </Array>
                    </mxGeometry>
                </mxCell>
                <mxCell id="cZtJvOjBXIy7jhNVxRS9-8" style="edgeStyle=elbowEdgeStyle;html=1;entryX=0;entryY=0.25;entryDx=0;entryDy=0;strokeColor=#001DBC;dashed=1;exitX=1;exitY=0.75;exitDx=0;exitDy=0;fillColor=#0050ef;strokeWidth=2;" edge="1" parent="1" target="nMj4Vo1XrmTeqmz92Q3k-3">
                    <mxGeometry relative="1" as="geometry">
                        <mxPoint x="479" y="215" as="sourcePoint"/>
                        <mxPoint x="321" y="155" as="targetPoint"/>
                        <Array as="points">
                            <mxPoint x="360" y="185"/>
                            <mxPoint x="350" y="185"/>
                            <mxPoint x="450" y="236"/>
                        </Array>
                    </mxGeometry>
                </mxCell>
            </root>
        </mxGraphModel>
    </diagram>
    <diagram id="rKgjaY-tmcYciZMarids" name="pipe-process-kernel">
        <mxGraphModel dx="768" dy="541" grid="1" gridSize="10" guides="1" tooltips="1" connect="1" arrows="1" fold="1" page="1" pageScale="1" pageWidth="827" pageHeight="1169" background="#ffffff" math="0" shadow="0">
            <root>
                <mxCell id="0"/>
                <mxCell id="1" parent="0"/>
                <mxCell id="n_2E6QvKLA-8S_WVj64R-5" value="" style="rounded=0;whiteSpace=wrap;html=1;strokeColor=none;strokeWidth=2;fontSize=20;fontColor=#000000;fillColor=#FFFFFF;" parent="1" vertex="1">
                    <mxGeometry x="100" y="80" width="600" height="200" as="geometry"/>
                </mxCell>
                <mxCell id="n_2E6QvKLA-8S_WVj64R-1" value="&lt;div style=&quot;text-align: right;&quot;&gt;&lt;span style=&quot;color: rgb(0, 0, 0); background-color: initial;&quot;&gt;&lt;font style=&quot;font-size: 16px;&quot;&gt;&amp;nbsp; &amp;nbsp; &amp;nbsp; &amp;nbsp; &amp;nbsp; &amp;nbsp; &amp;nbsp; &amp;nbsp; &amp;nbsp; &amp;nbsp; &amp;nbsp; &amp;nbsp; &amp;nbsp; (fd[0]) -- in&lt;br&gt;&lt;/font&gt;&lt;/span&gt;&lt;/div&gt;&lt;font style=&quot;font-size: 12px;&quot; color=&quot;#000000&quot;&gt;&lt;br&gt;&lt;font style=&quot;font-size: 20px;&quot;&gt;&amp;nbsp;&lt;/font&gt;&lt;/font&gt;&lt;font style=&quot;font-size: 12px;&quot; color=&quot;#000000&quot;&gt;&lt;font style=&quot;font-size: 20px;&quot;&gt;Process&lt;/font&gt;&lt;br&gt;&lt;br&gt;&lt;span style=&quot;font-size: 16px;&quot;&gt;&amp;nbsp; &amp;nbsp; &amp;nbsp; &amp;nbsp; &amp;nbsp; &amp;nbsp; &amp;nbsp; &amp;nbsp; &amp;nbsp; &amp;nbsp; &amp;nbsp; &amp;nbsp; (fd[1]) -- out&lt;/span&gt;&lt;br&gt;&lt;/font&gt;" style="rounded=1;whiteSpace=wrap;html=1;strokeColor=#000000;fillColor=#FFFFFF;align=left;strokeWidth=2;" parent="1" vertex="1">
                    <mxGeometry x="120" y="120" width="200" height="120" as="geometry"/>
                </mxCell>
                <mxCell id="n_2E6QvKLA-8S_WVj64R-2" value="&lt;div style=&quot;text-align: right;&quot;&gt;&lt;/div&gt;&lt;font style=&quot;&quot; color=&quot;#000000&quot;&gt;&lt;div style=&quot;text-align: center;&quot;&gt;&lt;span style=&quot;font-size: 20px; background-color: initial;&quot;&gt;&amp;nbsp; &amp;nbsp; &amp;nbsp; &amp;nbsp; &amp;nbsp; &amp;nbsp; Kernel&lt;/span&gt;&lt;/div&gt;&lt;/font&gt;" style="rounded=1;whiteSpace=wrap;html=1;strokeColor=#000000;fillColor=#FFFFFF;align=left;strokeWidth=2;" parent="1" vertex="1">
                    <mxGeometry x="480" y="120" width="200" height="120" as="geometry"/>
                </mxCell>
                <mxCell id="n_2E6QvKLA-8S_WVj64R-3" value="" style="shape=flexArrow;endArrow=classic;html=1;fontSize=20;fontColor=#000000;entryX=1;entryY=0.25;entryDx=0;entryDy=0;entryPerimeter=0;exitX=0;exitY=0.25;exitDx=0;exitDy=0;fillColor=default;strokeColor=#000000;" parent="1" edge="1">
                    <mxGeometry width="50" height="50" relative="1" as="geometry">
                        <mxPoint x="480" y="147" as="sourcePoint"/>
                        <mxPoint x="320" y="147" as="targetPoint"/>
                    </mxGeometry>
                </mxCell>
                <mxCell id="n_2E6QvKLA-8S_WVj64R-4" value="" style="shape=flexArrow;endArrow=classic;html=1;fontSize=20;fontColor=#000000;entryX=0;entryY=0.75;entryDx=0;entryDy=0;exitX=1;exitY=0.75;exitDx=0;exitDy=0;fillColor=default;strokeColor=#000000;" parent="1" edge="1">
                    <mxGeometry width="50" height="50" relative="1" as="geometry">
                        <mxPoint x="320" y="212" as="sourcePoint"/>
                        <mxPoint x="480" y="212" as="targetPoint"/>
                    </mxGeometry>
                </mxCell>
            </root>
        </mxGraphModel>
    </diagram>
    <diagram id="JnRN7rcGum_-eEUct0S4" name="pipe-with-dup">
        <mxGraphModel dx="768" dy="541" grid="1" gridSize="10" guides="1" tooltips="1" connect="1" arrows="1" fold="1" page="1" pageScale="1" pageWidth="827" pageHeight="1169" background="#ffffff" math="0" shadow="0">
            <root>
                <mxCell id="0"/>
                <mxCell id="1" parent="0"/>
                <mxCell id="12" value="" style="rounded=0;whiteSpace=wrap;html=1;labelBackgroundColor=#FFFFFF;strokeColor=none;fontSize=14;fontColor=#000000;fillColor=#FFFFFF;" parent="1" vertex="1">
                    <mxGeometry x="60" y="50" width="640" height="300" as="geometry"/>
                </mxCell>
                <mxCell id="2" value="&lt;font style=&quot;font-size: 14px;&quot; color=&quot;#000000&quot;&gt;&lt;u&gt;&lt;b&gt;Parent Process&lt;/b&gt;&lt;/u&gt;&lt;br&gt;write to fd[1]&lt;br&gt;&lt;/font&gt;" style="rounded=1;whiteSpace=wrap;html=1;fillColor=#FFFFFF;strokeColor=#000000;" parent="1" vertex="1">
                    <mxGeometry x="80" y="240" width="160" height="80" as="geometry"/>
                </mxCell>
                <mxCell id="3" value="&lt;font style=&quot;font-size: 14px;&quot; color=&quot;#000000&quot;&gt;&lt;u&gt;&lt;b&gt;Child Process&lt;/b&gt;&lt;/u&gt;&lt;br&gt;STDIN&amp;lt;--dup()--fd[0]&lt;br&gt;&lt;/font&gt;" style="rounded=1;whiteSpace=wrap;html=1;fillColor=#FFFFFF;strokeColor=#000000;" parent="1" vertex="1">
                    <mxGeometry x="520" y="80" width="160" height="80" as="geometry"/>
                </mxCell>
                <mxCell id="4" value="pipe" style="shape=cylinder3;whiteSpace=wrap;html=1;boundedLbl=1;backgroundOutline=1;size=15;strokeColor=#000000;fontSize=14;fontColor=#000000;fillColor=#FFFFFF;rotation=-90;" parent="1" vertex="1">
                    <mxGeometry x="353.5" y="217" width="60" height="125" as="geometry"/>
                </mxCell>
                <mxCell id="6" value="" style="shape=flexArrow;endArrow=classic;html=1;fontSize=14;fontColor=#000000;exitX=1;exitY=0.5;exitDx=0;exitDy=0;strokeColor=#000000;startSize=4;endSize=4;" parent="1" source="2" target="4" edge="1">
                    <mxGeometry width="50" height="50" relative="1" as="geometry">
                        <mxPoint x="370" y="300" as="sourcePoint"/>
                        <mxPoint x="420" y="250" as="targetPoint"/>
                    </mxGeometry>
                </mxCell>
                <mxCell id="7" value="" style="shape=flexArrow;endArrow=classic;html=1;fontSize=14;fontColor=#000000;entryX=0;entryY=0.5;entryDx=0;entryDy=0;exitX=0.5;exitY=1;exitDx=0;exitDy=0;strokeColor=#000000;startSize=4;endSize=4;exitPerimeter=0;" parent="1" source="4" target="8" edge="1">
                    <mxGeometry width="50" height="50" relative="1" as="geometry">
                        <mxPoint x="449" y="279.5" as="sourcePoint"/>
                        <mxPoint x="530" y="279" as="targetPoint"/>
                        <Array as="points"/>
                    </mxGeometry>
                </mxCell>
                <mxCell id="8" value="&lt;font style=&quot;&quot; color=&quot;#000000&quot;&gt;&lt;u style=&quot;&quot;&gt;&lt;b style=&quot;&quot;&gt;&lt;font style=&quot;font-size: 17px;&quot;&gt;sort&lt;/font&gt;&lt;/b&gt;&lt;/u&gt;&lt;br&gt;&lt;span style=&quot;font-size: 14px;&quot;&gt;Read from STDIN&lt;br&gt;&lt;/span&gt;&lt;font style=&quot;font-size: 14px;&quot;&gt;Accutally read from pipe&lt;/font&gt;&lt;br&gt;&lt;/font&gt;" style="rounded=1;whiteSpace=wrap;html=1;fillColor=#FFFFFF;strokeColor=#000000;" parent="1" vertex="1">
                    <mxGeometry x="520" y="240" width="160" height="80" as="geometry"/>
                </mxCell>
                <mxCell id="9" value="" style="endArrow=classic;html=1;strokeColor=#000000;fontSize=14;fontColor=#000000;startSize=6;endSize=7;entryX=0.5;entryY=0;entryDx=0;entryDy=0;exitX=0.5;exitY=1;exitDx=0;exitDy=0;strokeWidth=3;" parent="1" source="3" target="8" edge="1">
                    <mxGeometry width="50" height="50" relative="1" as="geometry">
                        <mxPoint x="370" y="280" as="sourcePoint"/>
                        <mxPoint x="420" y="230" as="targetPoint"/>
                    </mxGeometry>
                </mxCell>
                <mxCell id="10" value="&lt;span style=&quot;background-color: rgb(255, 255, 255);&quot;&gt;Execute `sort` command&lt;/span&gt;&amp;nbsp;" style="edgeLabel;html=1;align=center;verticalAlign=middle;resizable=0;points=[];fontSize=14;fontColor=#000000;imageAspect=1;" parent="9" vertex="1" connectable="0">
                    <mxGeometry x="0.3" y="1" relative="1" as="geometry">
                        <mxPoint y="-21" as="offset"/>
                    </mxGeometry>
                </mxCell>
            </root>
        </mxGraphModel>
    </diagram>
</mxfile>